<svg version="1.2" xmlns="http://www.w3.org/2000/svg" viewBox="0 0 280 180" width="280" height="180">
    <style>
        .automatic-gallery__s0 { fill: var(--neutral-100, transparent); stroke: var(--neutral-800, #d4d4d4); stroke-width: 2; }
        .automatic-gallery__title-text {
            font-size: 14px;
            color: var(--neutral-800);
            font-weight: 700;
            text-align: left;
            text-transform: initial;
        }
        .automatic-gallery__image-bg {
            fill: var(--neutral-200, #e5e5e5);
        }
        .automatic-gallery__image-icon {
            fill: var(--neutral-400, #a0a0a0);
        }
        .automatic-gallery__sun {
            fill: var(--primary-400, #fbbf24);
        }
    </style>
    <path fill-rule="evenodd" class="automatic-gallery__s0"
          d="m5 0h270c2.76 0 5 2.24 5 5v170c0 2.76-2.24 5-5 5h-270c-2.76 0-5-2.24-5-5v-170c0-2.76 2.24-5 5-5z"/>
    <foreignObject x="15" y="20" width="250" height="25">
        <div xmlns="http://www.w3.org/1999/xhtml">
            <div class="automatic-gallery__title-text">My great title</div>
        </div>
    </foreignObject>
    <g id="row1">
        <rect x="15" y="45" width="100" height="35" rx="3" class="automatic-gallery__image-bg"/>
        <circle cx="90" cy="58" r="5" class="automatic-gallery__sun"/>
        <path d="M 15 75 L 40 58 L 65 68 L 90 60 L 115 75 Z" class="automatic-gallery__image-icon"/>
        <rect x="120" y="45" width="70" height="35" rx="3" class="automatic-gallery__image-bg"/>
        <circle cx="175" cy="58" r="4" class="automatic-gallery__sun"/>
        <path d="M 120 75 L 140 62 L 160 70 L 180 65 L 190 75 Z" class="automatic-gallery__image-icon"/>
        <rect x="195" y="45" width="70" height="35" rx="3" class="automatic-gallery__image-bg"/>
        <circle cx="250" cy="58" r="4" class="automatic-gallery__sun"/>
        <path d="M 195 75 L 215 63 L 235 68 L 255 64 L 265 75 Z" class="automatic-gallery__image-icon"/>
    </g>
    <g id="row2">
        <rect x="15" y="85" width="150" height="35" rx="3" class="automatic-gallery__image-bg"/>
        <circle cx="125" cy="98" r="5" class="automatic-gallery__sun"/>
        <path d="M 15 115 L 45 95 L 80 105 L 120 98 L 155 110 L 165 115 Z" class="automatic-gallery__image-icon"/>
        <rect x="170" y="85" width="95" height="35" rx="3" class="automatic-gallery__image-bg"/>
        <circle cx="235" cy="98" r="4" class="automatic-gallery__sun"/>
        <path d="M 170 115 L 195 100 L 220 107 L 245 102 L 265 115 Z" class="automatic-gallery__image-icon"/>
    </g>
    <g id="row3">
        <rect x="15" y="125" width="57" height="35" rx="3" class="automatic-gallery__image-bg"/>
        <circle cx="55" cy="138" r="3" class="automatic-gallery__sun"/>
        <path d="M 15 155 L 30 143 L 45 148 L 60 145 L 72 155 Z" class="automatic-gallery__image-icon"/>
        <rect x="77" y="125" width="57" height="35" rx="3" class="automatic-gallery__image-bg"/>
        <circle cx="117" cy="138" r="3" class="automatic-gallery__sun"/>
        <path d="M 77 155 L 92 143 L 107 148 L 122 145 L 134 155 Z" class="automatic-gallery__image-icon"/>
        <rect x="139" y="125" width="57" height="35" rx="3" class="automatic-gallery__image-bg"/>
        <circle cx="179" cy="138" r="3" class="automatic-gallery__sun"/>
        <path d="M 139 155 L 154 143 L 169 148 L 184 145 L 196 155 Z" class="automatic-gallery__image-icon"/>
        <rect x="201" y="125" width="64" height="35" rx="3" class="automatic-gallery__image-bg"/>
        <circle cx="244" cy="138" r="3" class="automatic-gallery__sun"/>
        <path d="M 201 155 L 218 143 L 235 148 L 252 145 L 265 155 Z" class="automatic-gallery__image-icon"/>
    </g>
</svg>